<?xml version="1.0" encoding="utf-8" ?>
<svg xmlns="http://www.w3.org/2000/svg" xmlns:xlink="http://www.w3.org/1999/xlink" width="1024" height="1024">
	<path fill="#7FABD7" d="M432.409 112.234C437.58 112.136 442.77 112.22 447.943 112.224Q447.842 120.01 447.981 127.795C442.838 127.432 437.565 127.697 432.407 127.734L432.409 112.234Z"/>
	<path fill="#7FABD7" d="M304.173 160.214C309.421 160.023 314.681 160.141 319.932 160.19Q319.917 168.069 319.817 175.948L304.247 175.967L304.173 160.214Z"/>
	<path fill="#7FABD7" d="M864.061 128.192Q872.02 128.264 879.977 128.115L879.95 143.96C874.673 143.891 869.386 143.964 864.109 143.968Q864.195 136.08 864.061 128.192Z"/>
	<path fill="#7FABD7" d="M144.209 144.163C149.477 144.018 154.732 144.088 160 144.164C160.003 149.422 160.089 154.695 159.825 159.947L144.241 159.943C144.471 154.707 144.253 149.405 144.209 144.163Z"/>
	<path fill="#7FABD7" d="M416.317 128.096L431.998 128.01L431.955 144.001C426.736 143.824 421.479 143.956 416.256 143.961L416.317 128.096Z"/>
	<path fill="#7FABD7" d="M720.153 128.043L735.965 127.971Q736.005 135.979 735.82 143.984L720.208 143.949C720.337 138.664 720.176 133.332 720.153 128.043Z"/>
	<path fill="#70AFCA" d="M528.104 128.089L544.062 128.056L544.041 144.024L528.02 144.007Q528.224 136.049 528.104 128.089Z"/>
	<path fill="#84C3CA" d="M544.076 16.0762L560.032 16.0277Q559.897 24.0187 560.008 32.0101L544.199 31.9862C543.899 26.7109 544.075 21.3614 544.076 16.0762Z"/>
	<path fill="#7FABD7" d="M944.11 128.095L960.035 128.032L960.053 144.016L944.089 144.029Q944.222 136.062 944.11 128.095Z"/>
	<path fill="#70AFCA" d="M272.057 544.061L288.026 543.997L287.997 559.983L272.053 560.064C272.181 554.743 272.058 549.386 272.057 544.061Z"/>
	<path fill="#5C3905" d="M128.007 416.022L143.956 416.021L143.987 432.041C138.658 432.03 133.311 431.933 127.984 432.019L128.007 416.022Z"/>
	<path fill="#5C3905" d="M64.0229 416.02L79.9902 416.012L80.0088 432.016L64.0204 431.998L64.0229 416.02Z"/>
	<path fill="#7FABD7" d="M800.029 0L816.013 0L815.992 16.0077L799.993 16.0018C799.709 10.7401 800.013 5.28069 800.029 0Z"/>
	<path fill="#A98218" d="M112.65 304.047L127.972 303.993L127.997 320.249C122.969 319.424 117.1 319.995 111.978 320.031C111.937 316.405 110.93 306.589 112.65 304.047Z"/>
	<path fill="#70AFCA" d="M272.024 752.008L288.01 751.976L288.036 768.007L272.031 768.028L272.024 752.008Z"/>
	<path fill="#84C3CA" d="M256.013 272.004L272.014 271.888L271.963 287.989L255.968 288.023L256.013 272.004Z"/>
	<path fill="#FCFBFB" d="M0 240.043L16.0152 240.002L16.0304 256.085L0 256.035L0 240.043Z"/>
	<path fill="#7FABD7" d="M111.981 63.9584C115.161 63.9368 125.768 62.824 127.912 64.0286L127.958 80.0045C122.704 80.0082 117.404 79.8742 112.156 80.0621C111.307 75.2111 111.964 68.9735 111.981 63.9584Z"/>
	<path fill="#FCFBFB" d="M96.0667 208.292C101.342 207.846 106.739 208.045 112.034 208.027L112.081 224.125C106.73 223.982 101.369 224.095 96.0164 224.144Q95.8556 216.217 96.0667 208.292Z"/>
	<path fill="#70AFCA" d="M272.03 720.009L288.089 719.981C288.14 725.35 288.291 730.736 287.966 736.098L272.026 736.019C272.153 730.695 272.038 725.337 272.03 720.009Z"/>
	<path fill="#84C3CA" d="M272.021 415.581C277.312 415.538 282.739 415.246 288.005 415.792L288.037 431.969C282.759 431.898 277.471 431.954 272.191 431.948C272.002 426.501 272.058 421.032 272.021 415.581Z"/>
	<path fill="#FCFBFB" d="M0 79.9874L16.0737 79.9649L16.0517 96.4661L0 96.4493L0 79.9874Z"/>
	<path fill="#7FABD7" d="M16.195 176.082Q32.0764 175.99 47.9577 176.076C47.9459 179.075 48.5455 189.892 47.3638 191.964C36.9591 191.856 26.5449 191.955 16.1392 191.963Q16.3094 184.023 16.195 176.082Z"/>
	<path fill="#A98218" d="M128.016 336.022L144.056 336.036C143.58 346.734 143.635 357.318 143.97 368.019L128.013 367.997L128.016 336.022Z"/>
	<path fill="#7FABD7" d="M496.014 112.071L527.79 111.93Q527.748 119.969 527.871 128.007L495.705 127.89C496.581 122.844 496.05 117.196 496.014 112.071Z"/>
	<path fill="#7FABD7" d="M544.199 31.9862L560.008 32.0101L560.043 47.9521L528.303 48.0662L528.303 32.0767L544.199 31.9862Z"/>
	<path fill="#384140" d="M815.941 704.036L831.921 704.025Q831.667 720.016 831.968 736.006L815.933 736.014C816.355 725.404 815.996 714.657 815.941 704.036Z"/>
	<path fill="#384140" d="M719.986 224.035L751.932 224.074L751.914 240.009L720.01 239.996L719.986 224.035Z"/>
	<path fill="#916C12" d="M64.023 336.046L79.9849 336.009C79.9894 345.501 80.3817 355.159 79.9069 364.631L79.9881 367.994L63.9836 368L64.0494 352.042L64.023 336.046Z"/>
	<path fill="#805C08" d="M64.0494 352.042C68.6091 352.928 74.7529 351.983 79.5391 352.101C79.5835 356.242 79.4086 360.522 79.9069 364.631L79.9881 367.994L63.9836 368L64.0494 352.042Z"/>
	<path fill="#84C3CA" d="M287.997 559.983L288.025 576.015C287.972 580.828 287.162 587.411 288.481 592.003C288.489 593.358 288.519 594.687 288.39 596.038C288.293 594.679 288.128 593.51 287.791 592.191C282.669 591.543 277.191 592.001 272.027 592.069Q272.264 576.067 272.053 560.064L287.997 559.983Z"/>
	<path fill="#59816D" d="M288.036 768.007L304.002 767.998L303.998 784.029L288.334 783.985Q288.497 800.014 288.422 816.044L303.99 816.013L303.99 831.964L288.038 831.996C288.826 810.81 288.128 789.225 288.036 768.007Z"/>
	<path fill="#7FABD7" d="M496.026 64.0199L511.996 63.9898C512.991 68.5851 512.005 75.1337 511.992 79.9075C506.786 80.3296 501.566 80.7331 496.339 80.451Q495.939 88.1842 495.992 95.9275C492.223 96.097 483.261 97.786 480.132 95.9802C479.966 90.6811 480.071 85.3379 480.051 80.034L496.122 80.0155C496.029 74.6869 496.053 69.3497 496.026 64.0199Z"/>
	<path fill="#59816D" d="M16.1677 784.121C21.3801 783.945 26.6192 784.067 31.8349 784.082C31.9196 800.07 31.6785 816.028 31.9454 832.024C26.688 831.75 21.4221 831.827 16.1596 831.848C15.885 815.947 16.5176 800.028 16.1677 784.121Z"/>
	<path fill="#84C3CA" d="M288.334 783.985L303.998 784.029L319.975 784.01L320.002 800.007L303.987 800.011L303.99 816.013L288.422 816.044Q288.497 800.014 288.334 783.985Z"/>
	<path fill="#384140" d="M815.978 544.019L831.954 544.045C831.938 560.003 831.657 576.009 832.005 591.961C826.692 591.886 821.209 591.515 815.916 591.955C817.264 576.226 816.018 559.838 815.978 544.019Z"/>
	<path fill="#5C3905" d="M80.0088 432.016L127.984 432.019L127.989 448.017L80.0263 447.994L80.0088 432.016Z"/>
	<path fill="#FCFBFB" d="M96.0741 256.041Q104.04 255.884 112.006 256.012L111.995 288.042L96.0334 288.012L96.0104 304.026L79.9675 304.011L80.0168 288.022L96.0668 287.913Q96.1686 271.977 96.0741 256.041Z"/>
	<path fill="#805C08" d="M143.97 368.019L159.971 367.979L159.99 416.042C154.652 416.029 149.293 415.925 143.956 416.021C144.271 405.382 144.007 394.639 144.009 383.991L143.97 368.019Z"/>
	<path fill="#A98218" d="M96.0334 288.012L111.995 288.042C112 293.326 111.869 298.66 112.036 303.94L112.65 304.047C110.93 306.589 111.937 316.405 111.978 320.031L95.997 319.988C90.8605 319.988 85.039 319.431 80.0049 320.349L79.9675 304.011L96.0104 304.026L96.0334 288.012Z"/>
	<path fill="#916C12" d="M112.036 303.94L112.65 304.047C110.93 306.589 111.937 316.405 111.978 320.031L95.997 319.988L95.9647 304.031Q104.001 304.113 112.036 303.94Z"/>
	<path fill="#916C12" d="M48.0947 367.994L63.9836 368L63.9869 400.03L64.0229 416.02L48.0272 416.005C47.9944 399.998 47.6598 383.998 48.0947 367.994Z"/>
	<path fill="#84C3CA" d="M288.111 476.601C288.157 476.797 288.209 476.992 288.249 477.19C288.427 478.067 288.45 478.893 288.473 479.783C291.319 480.766 300.551 479.979 303.989 479.959L303.986 528.013C298.754 528.076 293.514 528.213 288.286 527.947C288.339 530.9 289.151 539.722 288.105 541.996C287.734 533.51 288.038 524.89 288.036 516.391Q287.956 496.496 288.111 476.601Z"/>
	<path fill="#7FABD7" d="M352.283 144.173C373.397 143.677 394.633 144.089 415.757 144.034C415.569 149.296 415.714 154.621 415.715 159.89C394.556 159.543 373.331 159.853 352.168 159.925C352.562 154.78 352.269 149.347 352.283 144.173Z"/>
	<path fill="#70AFCA" d="M240.155 304.046L255.975 303.991C255.693 308.712 254.557 315.254 256.356 319.663C256.866 319.869 257.352 320.099 257.891 320.215L256.588 320.518C254.794 323.707 256.018 332.134 256.018 336.016L240 336.004C240.012 340.359 240.904 347.353 239.756 351.406L235.744 351.846L224.056 351.919L224.034 320.026L240.306 320.008C240.048 314.725 240.191 309.341 240.155 304.046Z"/>
	<path fill="#7FABD7" d="M752.09 16.0196C759.122 15.8822 794.911 15.1039 799.516 16.2574L799.848 16.627C799.639 21.7293 799.836 26.8884 799.875 31.9964L783.95 32.0079L783.929 47.9901L768.202 47.9841C768.388 42.6893 768.207 37.3166 768.188 32.0146L752.181 32.0495L752.09 16.0196Z"/>
	<path fill="#70AFCA" d="M432.099 176.059L464.056 176.004L463.993 192.004L447.983 192.005L447.995 208L416.342 207.975C416.072 202.72 416.289 197.323 416.288 192.054L432.275 192.003C431.828 186.81 432.128 181.286 432.099 176.059Z"/>
	<path fill="#384140" d="M847.975 288.035L879.902 288.068C879.9 304.038 879.771 320.019 879.951 335.988C874.634 335.979 869.283 335.857 863.969 335.993C864.172 325.347 863.991 314.66 863.991 304.011L848.01 303.996L847.975 288.035Z"/>
	<path fill="#7FABD7" d="M96.2086 160.103Q112.078 160.005 127.947 160.131Q127.9 168.341 127.958 176.55C122.824 176.483 117.679 176.59 112.544 176.626C112.578 181.518 113.055 186.848 112.381 191.68L111.574 191.979L80.2141 192.005C80.5615 186.777 80.2924 181.316 80.3012 176.065L96.3138 176.028L96.2086 160.103Z"/>
	<path fill="#384140" d="M257.891 320.215Q272.955 319.862 288.022 320.001L287.975 335.982L288.025 351.93C270.62 351.586 253.156 351.863 235.744 351.846L239.756 351.406C240.904 347.353 240.012 340.359 240 336.004L256.018 336.016C256.018 332.134 254.794 323.707 256.588 320.518L257.891 320.215Z"/>
	<path fill="#7FABD7" d="M96.0714 64.0264L111.981 63.9584C111.964 68.9735 111.307 75.2111 112.156 80.0621L111.766 80.4918L111.874 95.973Q88.0078 95.7854 64.1412 95.91C64.5732 90.8424 64.1692 85.3607 64.1356 80.2544C67.303 78.3696 76.2553 79.6214 80.0212 79.9066L80.0202 63.8678L96.0714 64.0264Z"/>
	<path fill="#70AFCA" d="M96.0714 64.0264L111.981 63.9584C111.964 68.9735 111.307 75.2111 112.156 80.0621L111.766 80.4918C109.76 78.8762 98.9589 79.9523 95.9645 80.0212Q95.9286 72.0232 96.0714 64.0264Z"/>
	<path fill="#FCFBFB" d="M79.9881 367.994L96.0124 368.005Q96.0015 376.011 95.8378 384.016L96.0572 400.009L80.0552 400.011Q79.9812 408.012 79.9902 416.012L64.0229 416.02L63.9869 400.03L63.9836 368L79.9881 367.994Z"/>
	<path fill="#D3B443" d="M63.9869 400.03L80.0552 400.011Q79.9812 408.012 79.9902 416.012L64.0229 416.02L63.9869 400.03Z"/>
	<path fill="#A9E2B7" d="M304.01 431.985L320.009 431.984L320.011 447.932L319.99 464L320.032 479.968L303.989 479.959C300.551 479.979 291.319 480.766 288.473 479.783C288.45 478.893 288.427 478.067 288.249 477.19C288.209 476.992 288.157 476.797 288.111 476.601C287.745 467.107 288.04 457.495 288.027 447.987L288.037 431.969L304.01 431.985Z"/>
	<path fill="#59816D" d="M288.037 431.969L304.01 431.985L304.001 447.996L288.027 447.987L288.037 431.969Z"/>
	<path fill="#7FABD7" d="M736.334 112.11L831.904 112.003L831.851 127.969C826.497 127.862 821.13 127.962 815.775 127.984C815.82 132.893 816.524 138.714 815.614 143.492L814.791 143.66Q807.581 143.579 800.377 143.884C800.566 138.472 800.423 133.022 800.41 127.605L767.946 127.74L767.945 143.918C762.716 143.521 757.427 143.76 752.189 143.871L752.097 127.612C746.873 127.95 741.586 127.856 736.351 127.912L736.334 112.11Z"/>
	<path fill="#7FABD7" d="M208.404 112.161C229.53 111.682 250.785 112.022 271.921 112.162L271.854 127.989Q255.801 127.9 239.748 128.028C239.702 133.349 239.532 138.699 239.881 144.011L223.957 144.03L223.951 160.023L208.191 159.995Q208.295 151.993 208.159 143.991L192.048 144.032L192.059 128.052L208.432 128.011L208.404 112.161Z"/>
	<path fill="#A9E2B7" d="M111.978 320.031C117.1 319.995 122.969 319.424 127.997 320.249L128.016 336.022L128.013 367.997L96.0124 368.005L79.9881 367.994L79.9069 364.631C80.3817 355.159 79.9894 345.501 79.9849 336.009L80.0049 320.349C85.039 319.431 90.8605 319.988 95.997 319.988L111.978 320.031Z"/>
	<path fill="#916C12" d="M80.0049 320.349C85.039 319.431 90.8605 319.988 95.997 319.988L95.9884 336.005L79.9849 336.009L80.0049 320.349Z"/>
	<path fill="#916C12" d="M111.978 320.031C117.1 319.995 122.969 319.424 127.997 320.249L128.016 336.022L112.011 336.006L111.978 320.031Z"/>
	<path fill="#C79C2B" d="M128.013 367.997L143.97 368.019L144.009 383.991C144.007 394.639 144.271 405.382 143.956 416.021L128.007 416.022L127.984 432.019L80.0088 432.016L79.9902 416.012Q79.9813 408.011 80.0552 400.011L96.0572 400.009L95.8378 384.016Q96.0015 376.011 96.0124 368.005L128.013 367.997Z"/>
	<path fill="#A98218" d="M80.0552 400.011L96.0572 400.009L96.0012 416.035L79.9902 416.012Q79.9813 408.011 80.0552 400.011Z"/>
	<path fill="#D3B443" d="M128.013 367.997L143.97 368.019L144.009 383.991L95.8378 384.016Q96.0015 376.011 96.0124 368.005L128.013 367.997Z"/>
	<path fill="#7FABD7" d="M960.059 64.1657Q992.03 64.0302 1024 64.3456L1024 111.576Q985.586 111.799 947.172 111.62C935.454 111.607 923.293 112.383 911.644 111.633Q911.595 119.777 911.729 127.919C901.353 127.376 890.825 127.748 880.434 127.839L880.357 111.727C875.039 112.31 869.197 111.948 863.821 112.008C863.632 117.333 863.801 122.672 863.884 127.998C858.709 127.852 853.508 127.952 848.329 127.946L848.233 111.687C842.985 112.179 837.408 111.911 832.122 111.967L832.2 96.1759C842.917 96.0098 853.653 96.0948 864.372 96.0615L864.357 80.1529L960.062 80.0777L960.059 64.1657Z"/>
	<path fill="#CFCAD6" d="M528.02 144.007L544.041 144.024L544.006 176.011L528.016 176.01L528.023 192.017L512.015 192.012L512.018 207.985L495.987 208.009L480.038 208.01L480.049 223.955Q472.021 224.022 463.992 224.006L432.027 224.01L432.046 240.016L400.02 240.01L400.035 256.015L368.022 256.01L368.026 272L336.033 272.011L336.04 287.999L304.041 288.013L304.033 303.992C300.268 304.035 292.083 302.918 289.021 305.177C286.821 308.697 288.02 315.847 288.022 320.001Q272.955 319.862 257.891 320.215C257.352 320.099 256.866 319.869 256.356 319.663C254.557 315.254 255.693 308.712 255.975 303.991C256.186 298.703 255.986 293.319 255.968 288.023L271.963 287.989L272.014 271.888L272.049 256.047L304.019 255.995L304.109 240.124L336.017 240.018C336.163 234.706 336.067 229.361 336.077 224.046L368.034 223.992C368.239 218.687 368.145 213.371 368.115 208.063Q384.055 207.905 399.995 207.995L416.342 207.975L447.995 208L447.983 192.005L463.993 192.004L464.056 176.004C464.417 170.741 464.199 165.368 464.193 160.09L496.012 160.026C496.164 154.719 496.063 149.372 496.077 144.06L528.02 144.007Z"/>
	<path fill="#A9E2B7" d="M255.968 288.023L271.963 287.989L271.988 303.931Q263.982 304.088 255.975 303.991C256.186 298.703 255.986 293.319 255.968 288.023Z"/>
	<path fill="#70AFCA" d="M496.012 160.026L495.995 176.001L464.056 176.004C464.417 170.741 464.199 165.368 464.193 160.09L496.012 160.026Z"/>
	<path fill="#70AFCA" d="M304.109 240.124L336.017 240.018L336 256.002L304.019 255.995L304.109 240.124Z"/>
	<path fill="#70AFCA" d="M368.115 208.063Q384.055 207.905 399.995 207.995L399.996 224.002L368.034 223.992C368.239 218.687 368.145 213.371 368.115 208.063Z"/>
	<path fill="#70AFCA" d="M496.077 144.06L528.02 144.007L527.988 160.001C517.333 160.006 506.665 159.904 496.012 160.026C496.164 154.719 496.063 149.372 496.077 144.06Z"/>
	<path fill="#70AFCA" d="M336.077 224.046L368.034 223.992L367.992 240.001L336.017 240.018C336.163 234.706 336.067 229.361 336.077 224.046Z"/>
	<path fill="#70AFCA" d="M272.049 256.047L304.019 255.995L303.992 272.002L287.99 272.006L287.993 288.002L271.963 287.989L272.014 271.888L272.049 256.047Z"/>
	<path fill="#70AFCA" d="M0 0L271.923 0L271.936 15.9013C250.726 15.0716 229.2 15.64 207.967 15.9198L207.958 31.9028Q183.931 31.4584 159.905 31.9248L159.878 47.9848C154.459 47.9742 149.03 47.8902 143.613 48.0285C143.596 53.3271 143.466 58.652 143.764 63.9436C140.028 63.8596 131.074 62.8705 127.912 64.0286C125.768 62.824 115.161 63.9368 111.981 63.9584L96.0714 64.0264L80.0202 63.8678L80.0212 79.9066C76.2553 79.6214 67.303 78.3696 64.1356 80.2544L64.0501 79.712C48.0882 80.2152 32.0458 79.9516 16.0737 79.9649L0 79.9874L0 64.0116L0 0Z"/>
	<path fill="#7FABD7" d="M96.0189 48.1283L112.033 48.0205L111.981 63.9584L96.0714 64.0264L96.0189 48.1283Z"/>
	<path fill="#7FABD7" d="M0 64.0116L63.9796 64.0125C63.9873 69.213 63.7952 74.5238 64.0501 79.712C48.0882 80.2152 32.0458 79.9516 16.0737 79.9649L0 79.9874L0 64.0116Z"/>
	<path fill="#70AFCA" d="M592.041 0L800.029 0C800.013 5.28069 799.709 10.7401 799.993 16.0018L799.848 16.627L799.516 16.2574C794.911 15.1039 759.122 15.8822 752.09 16.0196C748.824 14.8228 725.117 15.8655 719.975 15.9148L719.975 31.9884L703.932 31.9518L703.875 47.9879L687.985 47.956L687.974 63.9306C672.068 63.3314 655.797 63.4102 639.886 63.8701L639.862 79.9725Q623.893 79.9054 607.924 80.0074L607.943 95.9072C591.898 95.6485 575.774 95.4862 559.734 95.9762Q559.58 103.944 559.827 111.909Q543.808 111.653 527.79 111.93L496.014 112.071C496.05 117.196 496.581 122.844 495.705 127.89C485.436 127.909 475.113 128.145 464.853 127.724C464.472 127.627 464.729 127.725 464.249 127.159C463.275 117.082 464.019 106.292 464.056 96.1254Q472.095 96.1708 480.132 95.9802C483.261 97.786 492.223 96.097 495.992 95.9275Q495.939 88.1842 496.339 80.451C501.566 80.7331 506.786 80.3296 511.992 79.9075C512.005 75.1337 512.991 68.5851 511.996 63.9898C513.206 61.3212 512.285 51.4789 512.237 48.0801L528.303 48.0662L560.043 47.9521L560.008 32.0101Q559.897 24.0187 560.032 16.0277L592.053 16.0026L592.041 0Z"/>
	<path fill="#7FABD7" d="M464.599 111.296C469.722 112.281 474.844 111.855 480.011 111.463L480.256 127.306C475.33 127.292 469.675 126.717 464.853 127.724C464.472 127.627 464.729 127.725 464.249 127.159C465.105 122.09 464.618 116.447 464.599 111.296Z"/>
	<path fill="#7FABD7" d="M688.018 16.1157C698.664 15.9008 709.327 15.9652 719.975 15.9148L719.975 31.9884L703.932 31.9518L688.033 32.1213L688.018 16.1157Z"/>
	<path fill="#59816D" d="M112.133 816.087L143.904 816.055L143.928 832.04L160.251 832.035Q160.089 824.067 160.104 816.098L175.897 816.097L175.926 832.058C186.606 832.052 197.337 832.244 208.011 831.989L224.006 832.039L240.292 832.07L240.148 816.083L255.934 816.07L255.973 832.027L272.016 832.021L288.038 831.996L303.99 831.964L304.012 864.019L304.005 880.015L320.029 879.981C320.008 885.247 319.763 890.647 320.036 895.9L320.341 896.041C319.364 901.154 319.872 906.716 320.098 911.902Q328.071 912.114 336.046 912.016L336.031 927.985L351.998 927.997L399.974 927.987L432.013 927.996L432.017 992.01L416.01 992.001L416.015 1008L431.988 1008.01L432.003 1024L400.021 1024L383.987 1024L112.02 1024L95.9882 1024L47.9995 1024L31.9937 1024L15.9874 1024L0 1024L0 976.017L0 959.998L0 896.025L0 879.999L0 832.036L15.9373 831.979L15.9504 848.051L32.2356 848.038Q32.0972 840.048 32.065 832.057L47.8944 832.098L47.9113 848.035L64.2363 848.027Q64.1361 840.107 64.1296 832.187Q72.0264 832.107 79.9234 832.119L79.9563 848.037L96.1047 848.02L96.0614 832.095L111.921 832.036L111.939 848.031L128.302 848.023C128.156 842.643 128.077 837.325 128.323 831.945L112.074 831.955L112.133 816.087Z"/>
	<path fill="#79BA78" d="M96.0061 927.968L111.998 928.015L112.009 944.426C106.931 943.421 101.174 943.936 96.0029 943.991L96.0061 927.968Z"/>
	<path fill="#A9E2B7" d="M255.973 832.027L272.016 832.021L272.022 848.013L255.991 848.016L255.973 832.027Z"/>
	<path fill="#A9E2B7" d="M47.9786 944.018L64.0197 943.993L64.0088 959.984L48.0029 960.01L47.9786 944.018Z"/>
	<path fill="#A9E2B7" d="M272.005 991.993L288.009 992L288.013 1008.01L271.997 1008.02L272.005 991.993Z"/>
	<path fill="#A9E2B7" d="M207.988 896.008L223.998 896.003L224.018 912.024L208.026 911.999L207.988 896.008Z"/>
	<path fill="#A9E2B7" d="M32.0059 911.999L47.9972 911.999L48.0137 928.016L31.9853 928.033L32.0059 911.999Z"/>
	<path fill="#A9E2B7" d="M0 959.998L16.0121 959.997L16.0091 976L0 976.017L0 959.998Z"/>
	<path fill="#A9E2B7" d="M191.986 912.015L208.026 911.999L208.018 928.008L192.024 928.017L191.986 912.015Z"/>
	<path fill="#A9E2B7" d="M0 879.999L16.0257 880.003L16.0061 896.001L0 896.025L0 879.999Z"/>
	<path fill="#A9E2B7" d="M16.0061 896.001L32.015 895.994L32.0059 911.999L15.9875 912.037L16.0061 896.001Z"/>
	<path fill="#A9E2B7" d="M208.011 831.989L224.006 832.039C224.134 837.414 224.178 842.623 223.86 847.995L207.995 848.025L208.011 831.989Z"/>
	<path fill="#A9E2B7" d="M175.986 928.065C181.359 927.801 186.651 927.86 192.024 928.017L192.01 943.941C186.681 943.962 181.345 944.037 176.017 943.999L175.986 928.065Z"/>
	<path fill="#A9E2B7" d="M224.003 928.005L256.008 927.998L256.01 943.96Q248.012 943.471 240.014 943.97L224.028 944.01C223.848 938.678 223.952 933.339 224.003 928.005Z"/>
	<path fill="#79BA78" d="M160.005 959.789L160.004 992.017L143.998 992.027L144.004 960.007C149.345 960.065 154.673 960.186 160.005 959.789Z"/>
	<path fill="#A9E2B7" d="M112.014 975.98L128.011 976.002L128.018 992.004L112.023 992.009L96.0069 991.982L96.0255 976.007L112.014 975.98Z"/>
	<path fill="#79BA78" d="M96.0255 976.007L112.014 975.98L112.023 992.009L96.0069 991.982L96.0255 976.007Z"/>
	<path fill="#A9E2B7" d="M255.996 959.994L272.013 960.036L272.005 991.993L255.995 992.024L255.996 959.994Z"/>
	<path fill="#A9E2B7" d="M96.0029 943.991C101.174 943.936 106.931 943.421 112.009 944.426L112.014 975.98L96.0255 976.007C95.8564 965.346 96.0058 954.655 96.0029 943.991Z"/>
	<path fill="#A9E2B7" d="M96.0069 991.982L112.023 992.009L112.02 1024L95.9882 1024L96.0357 1008.05L96.0069 991.982Z"/>
	<path fill="#79BA78" d="M256.01 943.96L271.988 944.013L272.013 960.036L255.996 959.994L239.996 960.024L240.014 943.97Q248.012 943.47 256.01 943.96Z"/>
	<path fill="#79BA78" d="M271.998 864.061C277.331 863.973 282.676 864.019 288.011 864.001L287.999 880L287.998 896.007C287.99 901.3 288.262 906.803 287.914 912.073C282.649 911.841 277.273 912.029 271.997 912.026L271.998 864.061Z"/>
	<path fill="#70AFCA" d="M303.99 831.964L304.012 864.019L304.005 880.015L287.999 880L288.011 864.001L288.038 831.996L303.99 831.964Z"/>
	<path fill="#A9E2B7" d="M159.983 944.006L176.017 943.999L176.004 992.007L160.004 992.017L160.005 959.789L159.983 944.006Z"/>
	<path fill="#79BA78" d="M64.0197 943.993L96.0029 943.991C96.0058 954.655 95.8564 965.346 96.0255 976.007L96.0069 991.982L80.0114 992.006L80.0028 975.988L80.0063 960.034L64.0088 959.984L64.0197 943.993Z"/>
	<path fill="#A9E2B7" d="M80.0028 975.988L96.0255 976.007L96.0069 991.982L80.0114 992.006L80.0028 975.988Z"/>
	<path fill="#79BA78" d="M48.0029 960.01L64.0088 959.984L80.0063 960.034L80.0028 975.988L80.0114 992.006L48.0125 992.008L48.0029 960.01Z"/>
	<path fill="#A9E2B7" d="M64.0088 959.984L80.0063 960.034L80.0028 975.988L63.9969 976.069L64.0088 959.984Z"/>
	<path fill="#A9E2B7" d="M63.9833 912.005L96.0089 911.997L96.0061 927.968L96.0029 943.991L64.0197 943.993C63.8536 933.34 63.994 922.661 63.9833 912.005Z"/>
	<path fill="#A9E2B7" d="M335.983 960.006L384.01 959.997L384.012 975.982L367.99 975.999L368.009 992.003L351.993 992.025L352 975.995L335.995 976.028L335.983 960.006Z"/>
	<path fill="#59816D" d="M80.0114 992.006L96.0069 991.982L96.0357 1008.05L95.9882 1024L47.9995 1024L47.9966 1007.98L48.0125 992.008L80.0114 992.006Z"/>
	<path fill="#79BA78" d="M80.0114 992.006L96.0069 991.982L96.0357 1008.05C90.7625 1007.59 85.3007 1007.9 80.0039 1007.96L80.0114 992.006Z"/>
	<path fill="#79BA78" d="M367.99 975.999L384.012 975.982L383.998 992.022L416.01 992.001L416.015 1008L431.988 1008.01L432.003 1024L400.021 1024L383.987 1024L383.994 1008L367.996 1008.02L368.009 992.003L367.99 975.999Z"/>
	<path fill="#A9E2B7" d="M383.994 1008L400.025 1008.06L400.021 1024L383.987 1024L383.994 1008Z"/>
	<path fill="#A9E2B7" d="M16.0091 976L32.0074 975.997L32.0126 992.002L48.0125 992.008L47.9966 1007.98L47.9995 1024L31.9937 1024L15.9874 1024L0 1024L0 976.017L16.0091 976Z"/>
	<path fill="#79BA78" d="M47.9966 1007.98L47.9995 1024L31.9937 1024L31.9906 1008L47.9966 1007.98Z"/>
	<path fill="#59816D" d="M0 976.017L16.0091 976L15.9874 1024L0 1024L0 976.017Z"/>
	<path fill="#A9E2B7" d="M399.974 927.987L432.013 927.996L432.017 992.01L416.01 992.001L383.998 992.022L384.012 975.982L400.001 975.989L399.974 927.987Z"/>
	<defs>
		<linearGradient id="gradient_0" gradientUnits="userSpaceOnUse" x1="286.53098" y1="916.3244" x2="345.73419" y2="951.39044">
			<stop offset="0" stop-color="#D5C4D0"/>
			<stop offset="1" stop-color="#BFE1EE"/>
		</linearGradient>
	</defs>
	<path fill="url(#gradient_0)" d="M304.005 880.015L320.029 879.981C320.008 885.247 319.763 890.647 320.036 895.9L320.341 896.041C319.364 901.154 319.872 906.716 320.098 911.902Q328.071 912.114 336.046 912.016L336.031 927.985L351.998 927.997Q352.071 936.021 352.005 944.045C330.678 943.781 309.315 944.024 287.985 944.025L288.022 912.331L287.914 912.073C288.262 906.803 287.99 901.3 287.998 896.007L287.999 880L304.005 880.015Z"/>
	<path fill="#70AFCA" d="M320.098 911.902Q328.071 912.114 336.046 912.016L336.031 927.985L320.009 928.001L319.98 912.372L320.098 911.902Z"/>
	<path fill="#84C3CA" d="M287.998 896.007C298.645 896.04 309.403 896.405 320.036 895.9L320.341 896.041C319.364 901.154 319.872 906.716 320.098 911.902L319.98 912.372C313.063 911.354 294.712 911.111 288.022 912.331L287.914 912.073C288.262 906.803 287.99 901.3 287.998 896.007Z"/>
	<path fill="#CFCAD6" d="M304.005 880.015L320.029 879.981C320.008 885.247 319.763 890.647 320.036 895.9C309.403 896.405 298.645 896.04 287.998 896.007L287.999 880L304.005 880.015Z"/>
	<path fill="#59816D" d="M544.062 128.056L559.892 128.122L559.945 144.035L591.897 144.013Q592.199 152.029 591.989 160.048L639.901 160.06L639.941 176.044L655.949 176.083L655.96 192.056L687.92 192.061L687.956 208.047L719.94 208.049L719.986 224.035L720.01 239.996L751.914 240.009L783.915 240.054L783.972 256.031C794.616 256.022 805.293 255.835 815.933 256.075L815.976 272.034L847.953 272.064C847.957 277.383 847.88 282.717 847.975 288.035L848.01 303.996L863.991 304.011C863.991 314.66 864.172 325.347 863.969 335.993L863.975 368.006L848.077 367.994L848.144 351.961L815.952 352.014C815.756 371 816.293 390.034 815.811 409.009L815.998 416.026L831.561 416.039C832.084 423.38 832.068 430.899 831.849 438.253L831.867 448.041C831.86 451.691 832.93 460.682 830.564 463.204C826.872 465.154 820.189 463.892 816.004 463.992L815.65 464.085Q815.582 472.005 815.644 479.924Q815.771 487.959 815.621 495.994C815.634 511.893 815.942 527.849 815.603 543.741L815.978 544.019C816.018 559.838 817.264 576.226 815.916 591.955L815.633 592.09L815.638 607.994L815.571 667.219C815.568 679.463 815.289 691.811 815.941 704.036C815.996 714.657 816.355 725.404 815.933 736.014Q815.388 768.014 815.946 800.014L831.942 800.075C831.923 810.716 831.741 821.383 831.977 832.02L864.407 832.037L864.12 816.101C869.364 815.978 874.628 816.069 879.875 816.07Q879.717 832.039 879.948 848.006C874.64 847.859 869.311 847.96 864.001 847.965L864.023 864.039L880.266 864.05C880.093 858.733 880.207 853.377 880.113 848.054L896.085 848.02L896.063 832.073C906.677 831.936 917.302 832.054 927.917 832.067L927.947 848.05L960.095 848.048L960.069 832.046L976.274 832.029C975.856 826.823 976.154 821.318 976.138 816.081L991.933 816.065L991.944 848.04L1008.13 848.03L1008.11 800.076L1024 800.037L1024 943.989L1024 1008.01L1024 1024L1008 1024L992.001 1024L959.989 1024L928.027 1024L912.004 1024L895.997 1024L800.019 1024L768.003 1024L735.998 1024L720.019 1024L703.989 1024L672 1024L656.004 1024L639.99 1024L608.003 1024L592.01 1024L575.996 1024L560.011 1024L543.989 1024L432.003 1024L431.988 1008.01L416.015 1008L416.01 992.001L432.017 992.01L432.013 927.996L399.974 927.987L351.998 927.997L336.031 927.985L336.046 912.016Q328.071 912.114 320.098 911.902C319.872 906.716 319.364 901.154 320.341 896.041L320.036 895.9C319.763 890.647 320.008 885.247 320.029 879.981L304.005 880.015L304.012 864.019L303.99 831.964L303.99 816.013L303.987 800.011L320.002 800.007L319.975 784.01L303.998 784.029L304.002 767.998L288.036 768.007L288.01 751.976L272.024 752.008L272.026 736.019L287.966 736.098C288.291 730.736 288.14 725.35 288.089 719.981C288.622 705.603 288.164 691.055 288.166 676.652L288.199 608.07C288.384 604.078 288.29 600.039 288.39 596.038C288.519 594.687 288.489 593.358 288.481 592.003C287.162 587.411 287.972 580.828 288.025 576.015L287.997 559.983L288.026 543.997L288.105 541.996C289.151 539.722 288.339 530.9 288.286 527.947C293.514 528.213 298.754 528.076 303.986 528.013L303.989 479.959L320.032 479.968L319.99 464L320.011 447.932L320.009 431.984L304.01 431.985L288.037 431.969L288.005 415.792C282.739 415.246 277.312 415.538 272.021 415.581L272.046 400.031L288.091 399.997C287.871 389.357 288.033 378.672 288.017 368.028C288.124 362.667 288.035 357.292 288.025 351.93L287.975 335.982L288.022 320.001C288.02 315.847 286.821 308.697 289.021 305.177C292.083 302.918 300.268 304.035 304.033 303.992L304.041 288.013L336.04 287.999L336.033 272.011L368.026 272L368.022 256.01L400.035 256.015L400.02 240.01L432.046 240.016L432.027 224.01L463.992 224.006Q472.021 224.022 480.049 223.955L480.038 208.01L495.987 208.009L512.018 207.985L512.015 192.012L528.023 192.017L528.016 176.01L544.006 176.011L544.041 144.024L544.062 128.056Z"/>
	<path fill="#384140" d="M800.012 464.005C805.199 463.984 810.476 463.757 815.65 464.085Q815.582 472.005 815.644 479.924L800.013 479.996L800.012 464.005Z"/>
	<path fill="#384140" d="M800.011 592.008C805.151 592.013 810.517 591.733 815.633 592.09L815.638 607.994L800.01 607.996L800.011 592.008Z"/>
	<path fill="#384140" d="M288.022 320.001C288.02 315.847 286.821 308.697 289.021 305.177C292.083 302.918 300.268 304.035 304.033 303.992L304.011 320.003L288.022 320.001Z"/>
	<path fill="#384140" d="M815.995 448.012L831.867 448.041C831.86 451.691 832.93 460.682 830.564 463.204C826.872 465.154 820.189 463.892 816.004 463.992C815.823 458.657 815.901 453.346 815.995 448.012Z"/>
	<path fill="#384140" d="M480.038 208.01L495.987 208.009L496.01 224.004C490.712 223.991 485.337 224.165 480.049 223.955L480.038 208.01Z"/>
	<path fill="#70AFCA" d="M576.628 255.997L592.014 256.021L592.033 272.019L575.902 271.99C576.135 266.684 575.747 261.243 576.628 255.997Z"/>
	<path fill="#79BA78" d="M672.015 975.992L688.008 976.003C688.007 981.298 688.096 986.609 687.954 991.901C682.644 991.89 677.301 991.753 672 992.067L672.015 975.992Z"/>
	<path fill="#384140" d="M656.005 240.014L671.995 239.99L672.019 256.004L656.013 256L656.005 240.014Z"/>
	<path fill="#384140" d="M815.998 416.026L831.561 416.039C832.084 423.38 832.068 430.899 831.849 438.253C831.661 436.184 831.703 434.075 831.668 431.997L816.024 431.997C815.847 426.669 815.923 421.355 815.998 416.026Z"/>
	<path fill="#A9E2B7" d="M912.007 912.001L927.992 912.001C927.983 917.334 928.062 922.682 927.725 928.006L912.018 927.982L912.007 912.001Z"/>
	<path fill="#384140" d="M784.005 576.017L800.005 575.991L800.011 592.008L784.115 591.989Q783.843 584.004 784.005 576.017Z"/>
	<path fill="#A9E2B7" d="M895.994 992.003C901.324 992.02 906.675 991.938 912.002 992.062L912.014 1007.97L895.999 1008.01L895.994 992.003Z"/>
	<path fill="#79BA78" d="M656.016 1008.01L671.983 1007.99L672 1024L656.004 1024L656.016 1008.01Z"/>
	<path fill="#A9E2B7" d="M639.994 1008.01L656.016 1008.01L656.004 1024L639.99 1024L639.994 1008.01Z"/>
	<path fill="#79BA78" d="M976.015 927.992L992.01 928.002L992.001 944L975.997 944.011L976.015 927.992Z"/>
	<path fill="#79BA78" d="M895.999 1008.01L912.014 1007.97L912.004 1024L895.997 1024L895.999 1008.01Z"/>
	<path fill="#79BA78" d="M624.005 959.969L639.995 960.022L640 975.997L623.972 975.996L624.005 959.969Z"/>
	<path fill="#79BA78" d="M607.993 1007.81L608.003 1024L592.01 1024L592.029 1007.99C597.357 1008.02 602.668 1008.04 607.993 1007.81Z"/>
	<path fill="#A9E2B7" d="M912.014 1007.97L927.996 1007.99L928.027 1024L912.004 1024L912.014 1007.97Z"/>
	<path fill="#A9E2B7" d="M959.984 928.007L976.015 927.992L975.997 944.011L959.996 944.026L959.984 928.007Z"/>
	<path fill="#A9E2B7" d="M703.987 1008.01L720.008 1008L720.019 1024L703.989 1024L703.987 1008.01Z"/>
	<path fill="#79BA78" d="M896.005 975.969L911.988 976.013L912.002 992.062C906.675 991.938 901.324 992.02 895.994 992.003L896.005 975.969Z"/>
	<path fill="#384140" d="M784.007 448.007L800.005 447.991L800.012 464.005L784.113 463.988C783.696 458.67 783.902 453.334 784.007 448.007Z"/>
	<path fill="#CFCAD6" d="M752.005 863.995L768.021 864.018L768.022 879.999L752.026 879.991L752.005 863.995Z"/>
	<path fill="#79BA78" d="M655.998 991.985L656.016 1008.01L639.994 1008.01L640.003 992.005L655.998 991.985Z"/>
	<path fill="#79BA78" d="M927.992 912.001L943.988 912.019L943.992 927.994L927.725 928.006C928.062 922.682 927.983 917.334 927.992 912.001Z"/>
	<path fill="#A9E2B7" d="M735.988 976.007L752.005 976L751.995 991.984C746.642 992.079 741.344 992.306 736.003 991.786L735.988 976.007Z"/>
	<path fill="#384140" d="M768.045 432.075L784.006 431.989L784.007 448.007L768.069 447.988C767.798 442.629 767.84 437.427 768.045 432.075Z"/>
	<path fill="#7FABD7" d="M560.048 255.642C565.275 256.632 571.291 256.09 576.628 255.997C575.747 261.243 576.135 266.684 575.902 271.99L559.99 272.004Q560.058 263.997 559.953 255.991L560.048 255.642Z"/>
	<path fill="#70AFCA" d="M527.987 224.011L544.055 224.016L544.076 240.006C538.738 240.016 533.311 239.828 527.984 240.062L527.987 224.011Z"/>
	<path fill="#FCFBFB" d="M815.859 831.902L831.977 832.02L832.029 848.023L816.01 848.008L815.859 831.902Z"/>
	<path fill="#384140" d="M336.033 272.011L368.026 272L368.037 287.995L336.04 287.999L336.033 272.011Z"/>
	<path fill="#384140" d="M304.041 288.013L336.04 287.999L336.03 304.004L304.033 303.992L304.041 288.013Z"/>
	<path fill="#384140" d="M752.01 288.006L784.002 287.991L784.011 304.005L752.016 303.935L752.01 288.006Z"/>
	<path fill="#84C3CA" d="M544.076 240.006Q552.042 239.934 560.008 240.025L560.048 255.642L559.953 255.991L527.987 255.99L527.984 240.062C533.311 239.828 538.738 240.016 544.076 240.006Z"/>
	<path fill="#70AFCA" d="M767.979 848.002C778.654 848.008 789.343 847.896 800.016 848.024L800.006 864.015L768.021 864.018L767.979 848.002Z"/>
	<path fill="#CFCAD6" d="M703.979 911.986L719.988 911.992L720.012 944.021L703.983 944.027L703.99 927.561L703.979 911.986Z"/>
	<path fill="#A9E2B7" d="M655.983 976.007L672.015 975.992L672 992.067C672.023 997.37 672.136 1002.69 671.983 1007.99L656.016 1008.01L655.998 991.985L655.983 976.007Z"/>
	<path fill="#70AFCA" d="M767.979 720.002C778.653 720.007 789.345 719.876 800.016 720.024L800.017 735.985Q784.017 736.105 768.017 736.017L767.979 720.002Z"/>
	<path fill="#384140" d="M799.997 496.014L815.621 495.994C815.634 511.893 815.942 527.849 815.603 543.741C810.737 544.603 805.033 544.014 800.079 543.995C799.872 528.007 800.007 512.003 799.997 496.014Z"/>
	<path fill="#384140" d="M799.994 352.014L815.952 352.014C815.756 371 816.293 390.034 815.811 409.009C815.432 406.127 815.716 402.913 815.731 399.992L800.076 399.994Q799.855 376.004 799.994 352.014Z"/>
	<path fill="#384140" d="M783.972 256.031C794.616 256.022 805.293 255.835 815.933 256.075L815.976 272.034L816.009 287.992L800.01 287.996L799.996 272.011L784.013 271.996L783.972 256.031Z"/>
	<path fill="#384140" d="M544.006 176.011L544.014 208.005L512.018 207.985L512.015 192.012L528.023 192.017L528.016 176.01L544.006 176.011Z"/>
	<path fill="#7FABD7" d="M320.011 447.932Q344.019 448.095 368.028 448C368.013 453.21 368.433 458.851 367.653 463.994L319.99 464L320.011 447.932Z"/>
	<path fill="#384140" d="M719.995 272.016L752.002 271.991L752.01 288.006L736.001 288.001L736.011 303.856C730.63 304.191 725.384 304.133 720.002 303.968L720.002 288L719.995 272.016Z"/>
	<path fill="#79BA78" d="M736.003 991.786C741.344 992.306 746.642 992.079 751.995 991.984L752.012 1008L768.125 1008.01C768.072 1013.33 767.931 1018.68 768.003 1024L735.998 1024L736.003 991.786Z"/>
	<path fill="#A9E2B7" d="M975.983 992.006L992.019 991.992L992.001 1024L959.989 1024L959.991 1008.05L976.002 1007.99L975.983 992.006Z"/>
	<path fill="#A9E2B7" d="M671.985 960.005L720.018 960C720.008 965.329 719.905 970.677 720.055 976.004L688.008 976.003L672.015 975.992L671.985 960.005Z"/>
	<path fill="#A9E2B7" d="M991.986 896.006L1008.12 896.002Q1007.96 912.005 1008.01 928.008L992.01 928.002L976.015 927.992L975.987 912.005L992.002 911.991L991.986 896.006Z"/>
	<path fill="#70AFCA" d="M719.988 911.992L752.014 912.019L752.01 944.017L720.012 944.021L719.988 911.992Z"/>
	<path fill="#A9E2B7" d="M879.985 896.006L912.008 895.998L912.007 912.001L912.018 927.982L896.022 928.001L880.016 928L879.985 896.006Z"/>
	<path fill="#59816D" d="M912.007 912.001L912.018 927.982L896.022 928.001L896.011 912.021L912.007 912.001Z"/>
	<path fill="#384140" d="M800.042 736.039L815.933 736.014Q815.388 768.014 815.946 800.014L800.012 799.995L799.991 768.011L784.016 767.999L783.997 752.013L800.01 752.002Q799.742 744.02 800.042 736.039Z"/>
	<path fill="#A9E2B7" d="M607.976 927.989L640.008 927.996L640.012 944.009L624.006 944.013L624.005 959.969L623.972 975.996L608.006 976.012L607.993 1007.81C602.668 1008.04 597.357 1008.02 592.029 1007.99C591.757 992.013 591.993 975.99 591.985 960.007L608.004 959.993L607.976 927.989Z"/>
	<path fill="#384140" d="M784.011 304.005L800.002 303.991L799.997 320.027L832 319.991L832.002 336.031L863.969 335.993L863.975 368.006L848.077 367.994L848.144 351.961L815.952 352.014C816.113 346.698 815.984 341.332 815.991 336.011L784.009 335.995L784.011 304.005Z"/>
	<path fill="#A9E2B7" d="M1008 944.005L1024 943.989L1024 1008.01L1024 1024L1008 1024L992.001 1024L992.019 991.992L991.983 976.006L1008 975.992L1008 944.005Z"/>
	<path fill="#79BA78" d="M992.019 991.992L1008 991.987L1008.02 1008.01L1024 1008.01L1024 1024L1008 1024L992.001 1024L992.019 991.992Z"/>
	<path fill="#59816D" d="M1024 1008.01L1024 1024L1008 1024L1008.02 1008.01L1024 1008.01Z"/>
	<path fill="#A9E2B7" d="M799.984 960.006L832.006 959.997L832.049 976.002L816.006 976.011L815.999 992.009L816 1008.01L800.002 1008.05L800.019 1024L768.003 1024C767.931 1018.68 768.072 1013.33 768.125 1008.01L784.004 1007.99L784.052 976.005L800.002 975.992L799.984 960.006Z"/>
	<path fill="#79BA78" d="M799.988 991.998L815.999 992.009L816 1008.01L800.002 1008.05L799.988 991.998Z"/>
	<path fill="#A9E2B7" d="M880.016 928L896.022 928.001L912.018 927.982L912.003 944.075L912.01 960.009L896.006 960.009L896.005 975.969L895.994 992.003L879.995 992.024L880.001 959.994L863.994 960.025L863.984 928.007L880.016 928Z"/>
	<path fill="#59816D" d="M880.016 928L896.022 928.001L895.971 943.99L880.04 943.9L880.016 928Z"/>
	<path fill="#79BA78" d="M896.022 928.001L912.018 927.982L912.003 944.075C906.667 943.95 901.31 944.013 895.971 943.99L896.022 928.001Z"/>
	<path fill="#384140" d="M432.027 224.01L463.992 224.006L464.01 256.002L416.001 255.999L416.005 272.066Q392.016 271.826 368.026 272L368.022 256.01L400.035 256.015L400.02 240.01L432.046 240.016L432.027 224.01Z"/>
	<path fill="#CFCAD6" d="M543.973 544.001L704.031 543.988L784.018 544.002L784.023 560.014L768.005 560.011L768.028 575.976L703.983 576.028L703.999 560.002C698.792 559.995 693.542 560.113 688.34 559.952C687.717 565.241 687.988 570.689 688.014 576.01L575.963 576.016L512.028 576.006C512.026 581.319 511.901 586.671 512.06 591.978L391.515 591.989Q355.752 591.668 319.989 592.056L319.655 591.95C309.284 592.177 298.858 591.99 288.481 592.003C287.162 587.411 287.972 580.828 288.025 576.015L287.997 559.983L288.026 543.997L543.973 544.001Z"/>
	<path fill="#59816D" d="M288.025 576.015L319.978 576.005C320.024 580.944 320.748 587.168 319.655 591.95C309.284 592.177 298.858 591.99 288.481 592.003C287.162 587.411 287.972 580.828 288.025 576.015Z"/>
	<path fill="#A9E2B7" d="M576.011 560.005L688.34 559.952C687.717 565.241 687.988 570.689 688.014 576.01L575.963 576.016L576.011 560.005Z"/>
	<path fill="#7FABD7" d="M319.978 576.005L512.028 576.006C512.026 581.319 511.901 586.671 512.06 591.978L391.515 591.989Q355.752 591.668 319.989 592.056L319.655 591.95C320.748 587.168 320.024 580.944 319.978 576.005Z"/>
	<path fill="#A9E2B7" d="M384.019 719.995L399.952 719.996L432.04 719.991L447.998 720.037L608.011 719.997L623.816 719.992L640 720.013L640.007 735.988C682.627 735.989 725.415 735.204 768.017 736.017L768.023 752.014C757.5 752.031 746.477 752.737 736.009 751.836L736.012 768.011L592.012 767.997L592.048 783.984L319.975 784.01L303.998 784.029L304.002 767.998L288.036 768.007L288.01 751.976L272.024 752.008L272.026 736.019L287.966 736.098C288.291 730.736 288.14 725.35 288.089 719.981L304.004 720L319.999 720.027L384.019 719.995Z"/>
	<path fill="#70AFCA" d="M304.002 767.998L592.012 767.997L592.048 783.984L319.975 784.01L303.998 784.029L304.002 767.998Z"/>
	<path fill="#CFCAD6" d="M288.05 736.126C302.306 735.539 316.599 735.962 330.868 735.968L406.739 735.976L640.007 735.988C682.627 735.989 725.415 735.204 768.017 736.017L768.023 752.014C757.5 752.031 746.477 752.737 736.009 751.836C726.863 750.114 714.993 751.883 705.496 751.95L632.861 752.001L403.512 751.998L328.751 752.006C315.197 752.012 301.583 752.473 288.041 751.892L288.05 736.126Z"/>
	<path fill="#CFCAD6" d="M368.028 448Q472.003 447.147 575.978 447.985C581.273 447.967 586.597 448.059 591.888 447.914L623.977 447.995Q640.002 447.818 656.027 448.001L656.027 464.053L671.988 463.997L671.972 448.003L688.02 448.002L688.026 464.083L736.023 464.002L736.023 479.997L752.028 480.002L752.023 528.014L704.017 528.013L704.031 543.988L543.973 544.001L288.026 543.997L288.105 541.996C289.151 539.722 288.339 530.9 288.286 527.947C293.514 528.213 298.754 528.076 303.986 528.013L303.989 479.959L320.032 479.968L319.99 464L367.653 463.994C368.433 458.851 368.013 453.21 368.028 448Z"/>
	<path fill="#70AFCA" d="M591.888 447.914L623.977 447.995L623.988 464.017Q607.997 463.864 592.005 464.004Q592.094 455.958 591.888 447.914Z"/>
	<path fill="#84C3CA" d="M543.953 527.986L704.017 528.013L704.031 543.988L543.973 544.001L543.953 527.986Z"/>
	<path fill="#70AFCA" d="M368.028 448Q472.003 447.147 575.978 447.985L575.993 464.002L367.653 463.994C368.433 458.851 368.013 453.21 368.028 448Z"/>
	<path fill="#A9E2B7" d="M303.986 528.013L543.953 527.986L543.973 544.001L288.026 543.997L288.105 541.996C289.151 539.722 288.339 530.9 288.286 527.947C293.514 528.213 298.754 528.076 303.986 528.013Z"/>
	<path fill="#CFCAD6" d="M319.989 592.056Q355.752 591.668 391.515 591.989L512.06 591.978L720.019 592.002L720.023 607.997L752.029 608.002L752.024 720.014L671.993 720.008L656.018 720L640 720.013L623.816 719.992L608.011 719.997L447.998 720.037L432.04 719.991L399.952 719.996L384.019 719.995L319.999 720.027L304.004 720L288.089 719.981C288.622 705.603 288.164 691.055 288.166 676.652L288.199 608.07C288.384 604.078 288.29 600.039 288.39 596.038C288.519 594.687 288.489 593.358 288.481 592.003C298.858 591.99 309.284 592.177 319.655 591.95L319.989 592.056Z"/>
	<path fill="#5C3905" d="M672.013 639.994L687.991 639.99L688.027 655.977L672.022 655.933L672.013 639.994Z"/>
	<path fill="#5C3905" d="M464.032 655.982L479.994 655.999L479.991 672.01L464.019 671.993L464.032 655.982Z"/>
	<path fill="#805C08" d="M368.002 640L383.999 640.025L384.01 655.998L368.008 656.005L368.002 640Z"/>
	<path fill="#805C08" d="M368.009 672.006L383.988 672.015L384.007 688.014L368.025 688.003L368.009 672.006Z"/>
	<path fill="#5C3905" d="M688.027 655.977L703.988 655.99L703.992 672.014L688.007 671.997L688.027 655.977Z"/>
	<path fill="#805C08" d="M352.003 655.999L368.008 656.005L368.009 672.006L352.021 672.002L352.003 655.999Z"/>
	<path fill="#70AFCA" d="M304.043 704.022L320.003 703.996L319.999 720.027L304.004 720Q303.931 712.011 304.043 704.022Z"/>
	<path fill="#D3B443" d="M368.008 656.005L384.01 655.998L383.988 672.015L368.009 672.006L368.008 656.005Z"/>
	<path fill="#916C12" d="M672.022 655.933L688.027 655.977L688.007 671.997L672.663 671.985L672.24 671.771C671.786 666.532 672.003 661.189 672.022 655.933Z"/>
	<path fill="#A9E2B7" d="M319.655 591.95L319.989 592.056L320.035 607.962L303.989 607.957C298.73 607.856 293.458 608.002 288.199 608.07C288.384 604.078 288.29 600.039 288.39 596.038C288.519 594.687 288.489 593.358 288.481 592.003C298.858 591.99 309.284 592.177 319.655 591.95Z"/>
	<path fill="#5C3905" d="M656.058 608.003L671.991 607.965C671.993 618.63 671.818 629.332 672.013 639.994L656.008 639.97L656.019 624.012L656.058 608.003Z"/>
	<path fill="#A98218" d="M592.011 671.996L607.999 671.994L608.015 688.007L608.015 704.043C602.687 703.939 597.341 704.016 592.011 704.004L592.011 671.996Z"/>
	<path fill="#916C12" d="M607.998 608.006L656.058 608.003L656.019 624.012L608 623.985L607.998 608.006Z"/>
	<path fill="#805C08" d="M384.004 607.975L432.075 607.999Q431.973 616.004 432.023 624.009L384.002 623.985L384.004 607.975Z"/>
	<path fill="#5C3905" d="M672.663 671.985L688.007 671.997L687.992 704.008L671.97 704.002L671.993 720.008L656.018 720Q655.96 704.225 656.064 688.451C661.323 687.814 666.717 688.016 672.008 687.998C672.007 682.709 671.683 677.197 672.663 671.985Z"/>
	<path fill="#5C3905" d="M448.047 672.426C453.29 671.768 458.737 672.016 464.019 671.993L463.992 704.008L447.97 704.001L447.998 720.037L432.04 719.991L432.048 688.411C437.3 687.77 442.725 688.007 448.011 687.998L448.047 672.426Z"/>
	<path fill="#916C12" d="M592.27 640.003L608.01 640.013L608.01 656L607.999 671.994L592.011 671.996L576.013 672.003L576.001 640.003L592.27 640.003Z"/>
	<path fill="#805C08" d="M592.27 640.003L608.01 640.013L608.01 656L592.006 656.025C591.925 650.763 591.578 645.22 592.27 640.003Z"/>
	<path fill="#D3B443" d="M592.006 656.025L608.01 656L607.999 671.994L592.011 671.996L592.006 656.025Z"/>
	<path fill="#D3B443" d="M608 623.985L656.019 624.012L656.008 639.97L623.976 640.005L623.97 655.972L608.01 656L608.01 640.013L608 623.985Z"/>
	<path fill="#D3B443" d="M384.002 623.985L432.023 624.009L432.011 639.977L399.972 640.005L399.971 655.974L384.01 655.998L383.999 640.025L384.002 623.985Z"/>
	<path fill="#5C3905" d="M432.075 607.999C437.372 608.016 442.695 608.146 447.989 607.955L447.989 624.029L463.993 623.995Q463.843 639.989 464.032 655.982Q456.027 656.035 448.022 655.935C444.857 655.974 435.128 657.281 433.031 654.923C430.809 652.424 431.936 643.502 432.011 639.977L432.023 624.009Q431.973 616.004 432.075 607.999Z"/>
	<path fill="#D3B443" d="M432.011 639.977L448.011 639.999L448.022 655.935C444.857 655.974 435.128 657.281 433.031 654.923C430.809 652.424 431.936 643.502 432.011 639.977Z"/>
	<path fill="#A98218" d="M400.019 688.01C410.643 688.022 421.311 687.835 431.93 688.057L432.048 688.411L432.04 719.991L399.952 719.996L384.019 719.995L384.007 688.014L400.019 688.01Z"/>
	<path fill="#805C08" d="M384.007 688.014L400.019 688.01C399.999 698.659 400.183 709.352 399.952 719.996L384.019 719.995L384.007 688.014Z"/>
	<path fill="#84C3CA" d="M288.089 719.981C288.622 705.603 288.164 691.055 288.166 676.652L288.199 608.07C293.458 608.002 298.73 607.856 303.989 607.957L303.977 669.467C303.965 680.979 303.64 692.515 304.043 704.022Q303.931 712.011 304.004 720L288.089 719.981Z"/>
	<path fill="#C79C2B" d="M432.011 639.977C431.936 643.502 430.809 652.424 433.031 654.923C435.128 657.281 444.857 655.974 448.022 655.935Q456.027 656.035 464.032 655.982L464.019 671.993C458.737 672.016 453.29 671.768 448.047 672.426L448.011 687.998C442.725 688.007 437.3 687.77 432.048 688.411L431.93 688.057C421.311 687.835 410.643 688.022 400.019 688.01L384.007 688.014L383.988 672.015L384.01 655.998L399.971 655.974L399.972 640.005L432.011 639.977Z"/>
	<path fill="#916C12" d="M431.991 672.024L447.934 672.047L448.047 672.426L448.011 687.998C442.725 688.007 437.3 687.77 432.048 688.411L431.93 688.057C432.209 682.765 431.991 677.331 431.991 672.024Z"/>
	<path fill="#805C08" d="M448.022 655.935Q456.027 656.035 464.032 655.982L464.019 671.993C458.737 672.016 453.29 671.768 448.047 672.426L447.934 672.047C448.205 666.692 448.05 661.297 448.022 655.935Z"/>
	<path fill="#C79C2B" d="M656.008 639.97L672.013 639.994L672.022 655.933C672.003 661.189 671.786 666.532 672.24 671.771L672.663 671.985C671.683 677.197 672.007 682.709 672.008 687.998C666.717 688.016 661.323 687.814 656.064 688.451Q655.96 704.226 656.018 720L640 720.013L623.816 719.992L608.011 719.997L608.015 704.043L608.015 688.007L607.999 671.994L608.01 656L623.97 655.972L623.976 640.005L656.008 639.97Z"/>
	<path fill="#805C08" d="M672.24 671.771L672.663 671.985C671.683 677.197 672.007 682.709 672.008 687.998C666.717 688.016 661.323 687.814 656.064 688.451L655.977 688.096Q656.038 680.058 655.989 672.02C661.399 672.023 666.841 672.15 672.24 671.771Z"/>
	<path fill="#805C08" d="M608.015 688.007L624.008 687.996L624.017 704.016C624.02 709.291 624.314 714.745 623.816 719.992L608.011 719.997L608.015 704.043L608.015 688.007Z"/>
	<path fill="#916C12" d="M639.991 688.022L655.977 688.096L656.064 688.451Q655.96 704.226 656.018 720L640 720.013L623.816 719.992C624.314 714.745 624.02 709.291 624.017 704.016L640.009 704.001L639.991 688.022Z"/>
	<path fill="#CFCAD6" d="M527.987 255.99L559.953 255.991Q560.058 263.997 559.99 272.004L575.902 271.99L592.033 272.019L592.029 287.998L624.022 288.001L624.028 303.997L656.032 304.002L656.037 319.998L704.036 320.002L704.036 335.997L735.979 336.01L736.029 351.996L752.012 352.002Q751.854 367.929 752.082 383.856C746.726 384.665 741.403 384.254 736.016 383.968L736.019 399.997L752.025 400.002L752.047 415.997L768.017 416.002L768.019 431.997L471.166 432.017C420.814 432.016 370.349 432.743 320.009 431.984L304.01 431.985L288.037 431.969L288.005 415.792C282.739 415.246 277.312 415.538 272.021 415.581L272.046 400.031L288.091 399.997C287.871 389.357 288.033 378.672 288.017 368.028C288.124 362.667 288.035 357.292 288.025 351.93L287.975 335.982L303.983 335.994Q327.99 335.827 351.997 335.991L351.975 320L383.986 319.998L383.917 303.818C394.618 304.36 405.201 304.183 415.911 303.978C416.07 298.668 415.959 293.315 415.97 288.001L447.995 287.998L447.962 272.001L479.992 271.995L479.967 256.002L527.987 255.99Z"/>
	<path fill="#5C3905" d="M576.027 319.982L591.991 319.996L591.988 336.01L576.019 335.992L576.027 319.982Z"/>
	<path fill="#5C3905" d="M560.017 287.996L575.993 287.995Q575.856 303.989 576.027 319.982Q568.026 320.103 560.026 319.909L560.017 287.996Z"/>
	<path fill="#59816D" d="M688.236 383.974L703.996 383.997L703.993 415.997L688.018 415.995L688.02 400.03C687.988 394.679 687.861 389.314 688.236 383.974Z"/>
	<path fill="#A9E2B7" d="M288.017 368.028L304.015 368.006L304.015 384.031L431.018 384.013C452.709 384.03 474.328 384.83 496.018 384.002L544.095 383.987L559.998 384.036L688.236 383.974C687.861 389.314 687.988 394.679 688.02 400.03L607.957 399.994L608.039 415.968L591.977 415.996C591.991 410.66 591.933 405.312 592.029 399.978L319.964 399.992L320.06 415.958C309.342 416.19 298.704 416.725 288.005 415.792C282.739 415.246 277.312 415.538 272.021 415.581L272.046 400.031L288.091 399.997C287.871 389.357 288.033 378.672 288.017 368.028Z"/>
	<path fill="#CFCAD6" d="M527.987 255.99L559.953 255.991Q560.058 263.997 559.99 272.004L560.017 287.996L560.026 319.909Q568.026 320.103 576.027 319.982L576.019 335.992L575.992 368.008L559.97 368.001L559.998 384.036L544.095 383.987L496.018 384.002C474.328 384.83 452.709 384.03 431.018 384.013L304.015 384.031L304.015 368.006L288.017 368.028C288.124 362.667 288.035 357.292 288.025 351.93L287.975 335.982L303.983 335.994Q327.99 335.827 351.997 335.991L351.975 320L383.986 319.998L383.917 303.818C394.618 304.36 405.201 304.183 415.911 303.978C416.07 298.668 415.959 293.315 415.97 288.001L447.995 287.998L447.962 272.001L479.992 271.995L479.967 256.002L527.987 255.99Z"/>
	<path fill="#805C08" d="M496.003 272L511.509 272.025C512.615 275.559 512.637 284.367 511.508 287.989L496.019 288L496.003 272Z"/>
	<path fill="#916C12" d="M464.001 319.996L480.011 320.034L480.006 336.003L464.019 336.006L464.001 319.996Z"/>
	<path fill="#916C12" d="M511.509 272.025L529.017 272.018C527.554 276.959 527.993 282.228 528.095 287.324C530.044 287.313 535.425 286.785 536.876 287.841Q532.424 287.882 527.972 287.853C522.552 288.228 516.95 287.983 511.508 287.989C512.637 284.367 512.615 275.559 511.509 272.025Z"/>
	<path fill="#805C08" d="M529.017 272.018L559.99 272.004L560.017 287.996Q548.445 288.115 536.876 287.841C535.425 286.785 530.044 287.313 528.095 287.324C527.993 282.228 527.554 276.959 529.017 272.018Z"/>
	<path fill="#70AFCA" d="M287.975 335.982L303.983 335.994L304.015 368.006L288.017 368.028C288.124 362.667 288.035 357.292 288.025 351.93L287.975 335.982Z"/>
	<path fill="#A98218" d="M479.995 287.996L496.019 288L496.009 319.996L480.011 320.034L479.995 287.996Z"/>
	<path fill="#C79C2B" d="M527.972 287.853Q532.424 287.882 536.876 287.841Q548.445 288.115 560.017 287.996L560.026 319.909Q568.026 320.103 576.027 319.982L576.019 335.992L575.992 368.008L559.97 368.001L559.998 384.036L544.095 383.987L496.018 384.002L496.018 352.015L480.006 352.003L480.006 336.003L480.011 320.034L496.009 319.996L496.019 288L511.508 287.989C516.95 287.983 522.552 288.228 527.972 287.853Z"/>
	<path fill="#A98218" d="M480.006 336.003L496.014 335.98L496.018 352.015L480.006 352.003L480.006 336.003Z"/>
	<path fill="#D3B443" d="M511.508 287.989C516.95 287.983 522.552 288.228 527.972 287.853C528.417 298.613 528.08 309.22 527.965 319.978L496.009 319.996L496.019 288L511.508 287.989Z"/>
	<path fill="#805C08" d="M560.026 319.909Q568.026 320.103 576.027 319.982L576.019 335.992L575.992 368.008L559.97 368.001L559.998 384.036L544.095 383.987L496.018 384.002L496.018 352.015L544.009 352.008L544.001 336.019L560.008 336.008L560.026 319.909Z"/>
	<path fill="#5C3905" d="M559.987 336.025L576.019 335.992L575.992 368.008L559.97 368.001L559.998 384.036L544.095 383.987Q543.864 368.008 543.992 352.029L560.013 352.001L559.987 336.025Z"/>
	<path fill="#CFCAD6" d="M592.048 783.984L736.026 784.001L736.023 799.998L752.012 800.001L752.005 863.995L752.026 879.991L752.009 896.019L703.976 896.003L703.979 911.986L703.99 927.561C696.477 928.614 688.406 928.057 680.813 928.05L640.008 927.996L607.976 927.989L608.004 959.993L591.985 960.007C591.993 975.99 591.757 992.013 592.029 1007.99L592.01 1024L575.996 1024L560.011 1024L543.989 1024L432.003 1024L431.988 1008.01L416.015 1008L416.01 992.001L432.017 992.01L432.013 927.996L399.974 927.987L351.998 927.997L336.031 927.985L336.046 912.016Q328.071 912.114 320.098 911.902C319.872 906.716 319.364 901.154 320.341 896.041L320.036 895.9C319.763 890.647 320.008 885.247 320.029 879.981L304.005 880.015L304.012 864.019L303.99 831.964L303.99 816.013L303.987 800.011L320.002 800.007L319.975 784.01L592.048 783.984Z"/>
	<path fill="#A9E2B7" d="M463.986 879.998L480.041 879.974L480.05 896.013L463.941 896.013L463.986 879.998Z"/>
	<path fill="#59816D" d="M544.008 847.983L559.996 847.998C559.998 858.659 559.878 869.336 560.005 879.996L544.011 879.983L544.008 847.983Z"/>
	<path fill="#CFCAD6" d="M544.011 879.983L560.005 879.996L560.01 896.012L544.018 896.019L528.014 896.012L528.013 879.981L544.011 879.983Z"/>
	<path fill="#70AFCA" d="M528.013 879.981L544.011 879.983L544.018 896.019L528.014 896.012L528.013 879.981Z"/>
	<path fill="#59816D" d="M752.005 863.995L752.026 879.991L688.029 879.982L688.015 864.017L752.005 863.995Z"/>
	<path fill="#59816D" d="M576.013 864.015L671.988 863.998L671.987 879.991L576.023 879.983L576.013 864.015Z"/>
	<path fill="#A9E2B7" d="M464.006 848.017L544.008 847.983L544.011 879.983L528.013 879.981L495.974 879.998L496.029 863.98L463.971 863.997L464.006 848.017Z"/>
	<path fill="#70AFCA" d="M688.029 879.982L752.026 879.991L752.009 896.019L703.976 896.003L560.01 896.012L560.005 879.996L576.023 879.983L671.987 879.991L688.029 879.982Z"/>
	<path fill="#A9E2B7" d="M336.006 848.016L432.032 848L432.022 864.038L448.032 864.001L448.034 896.014L432.015 896.01L432.026 912.014L415.994 912.03L416 896L367.972 896.013L352.036 896.014L336.066 896.013L320.341 896.041L320.036 895.9C319.763 890.647 320.008 885.247 320.029 879.981L304.005 880.015L304.012 864.019L335.968 863.994L336.006 848.016Z"/>
	<path fill="#CFCAD6" d="M351.959 863.995L400.027 863.982L399.967 879.989L368.012 880.004L367.972 896.013L352.036 896.014C352.014 885.347 352.121 874.66 351.959 863.995Z"/>
	<path fill="#264B2F" d="M560.01 896.012L703.976 896.003L703.979 911.986L703.99 927.561C696.477 928.614 688.406 928.057 680.813 928.05L640.008 927.996L607.976 927.989L592.008 927.996L576.022 928.002L576.018 911.996L559.976 911.993L559.991 927.989L543.976 927.987L432.013 927.996L399.974 927.987L351.998 927.997L336.031 927.985L336.046 912.016Q328.071 912.114 320.098 911.902C319.872 906.716 319.364 901.154 320.341 896.041L336.066 896.013L352.036 896.014L367.972 896.013L416 896L415.994 912.03L432.026 912.014L432.015 896.01L448.034 896.014L463.941 896.013L480.05 896.013L528.014 896.012L544.018 896.019L560.01 896.012Z"/>
	<path fill="#59816D" d="M320.341 896.041L336.066 896.013L336.046 912.016Q328.071 912.114 320.098 911.902C319.872 906.716 319.364 901.154 320.341 896.041Z"/>
	<path fill="#59816D" d="M559.976 911.993L576.018 911.996L576.022 928.002L592.008 927.996L607.976 927.989L608.004 959.993L591.985 960.007C591.993 975.99 591.757 992.013 592.029 1007.99L592.01 1024L575.996 1024L560.011 1024L543.989 1024L432.003 1024L431.988 1008.01L416.015 1008L416.01 992.001L432.017 992.01L432.013 927.996L543.976 927.987L559.991 927.989L559.976 911.993Z"/>
	<path fill="#A9E2B7" d="M559.976 911.993L576.018 911.996L576.022 928.002L592.008 927.996L607.976 927.989L608.004 959.993L591.985 960.007C591.993 975.99 591.757 992.013 592.029 1007.99L592.01 1024L575.996 1024L560.011 1024L543.989 1024L544 991.995L527.995 992.025L527.984 960.006L544.002 959.992L543.976 927.987L559.991 927.989L559.976 911.993Z"/>
	<path fill="#79BA78" d="M559.989 1008L576.014 1007.98L575.996 1024L560.011 1024L559.989 1008Z"/>
	<path fill="#A9E2B7" d="M576.014 1007.98L592.029 1007.99L592.01 1024L575.996 1024L576.014 1007.98Z"/>
	<path fill="#59816D" d="M592.008 927.996L607.976 927.989L608.004 959.993L591.985 960.007C591.993 975.99 591.757 992.013 592.029 1007.99L576.014 1007.98L576.006 944.014L592.013 944.01L592.008 927.996Z"/>
</svg>
